<?xml version="1.0" encoding="UTF-8" standalone="no"?>
<!-- Created with Inkscape (http://www.inkscape.org/) -->

<svg
   width="91.800354mm"
   height="22.015068mm"
   viewBox="0 0 91.800354 22.015068"
   version="1.1"
   id="svg5"
   xml:space="preserve"
   inkscape:export-filename="logo.svg"
   inkscape:export-xdpi="96"
   inkscape:export-ydpi="96"
   xmlns:inkscape="http://www.inkscape.org/namespaces/inkscape"
   xmlns:sodipodi="http://sodipodi.sourceforge.net/DTD/sodipodi-0.dtd"
   xmlns="http://www.w3.org/2000/svg"
   xmlns:svg="http://www.w3.org/2000/svg"><sodipodi:namedview
     id="namedview7"
     pagecolor="#ffffff"
     bordercolor="#000000"
     borderopacity="0.25"
     inkscape:showpageshadow="2"
     inkscape:pageopacity="0.0"
     inkscape:pagecheckerboard="0"
     inkscape:deskcolor="#d1d1d1"
     inkscape:document-units="mm"
     showgrid="false"
     inkscape:zoom="0.43619214"
     inkscape:cx="-271.66927"
     inkscape:cy="104.31183"
     inkscape:window-width="1440"
     inkscape:window-height="847"
     inkscape:window-x="0"
     inkscape:window-y="25"
     inkscape:window-maximized="0"
     inkscape:current-layer="g1797" /><defs
     id="defs2"><clipPath
       clipPathUnits="userSpaceOnUse"
       id="clipPath2053"><path
         d="M 0,595.28 H 841.89 V 0 H 0 Z"
         id="path2051" /></clipPath><filter
       inkscape:label="Fast Crop"
       inkscape:auto-region="false"
       inkscape:menu="Fill and Transparency"
       inkscape:menu-tooltip="Does not filter but adds a filter region"
       style="color-interpolation-filters:sRGB"
       id="filter4417"><feColorMatrix
         type="saturate"
         values="1"
         id="feColorMatrix4415" /></filter></defs><g
     inkscape:label="Layer 1"
     inkscape:groupmode="layer"
     id="layer1"
     transform="translate(3.9856692,-54.770929)"><g
       id="g1797"
       inkscape:label="GMadridSports_Brandbook_140319"
       transform="matrix(0.35277777,0,0,-0.35277777,-50.968259,253.50148)"><text
         xml:space="preserve"
         transform="scale(1,-1)"
         style="font-style:italic;font-variant:normal;font-weight:bold;font-stretch:normal;font-size:14.6625px;font-family:'Klinic Slab Bold';-inkscape-font-specification:KlinicSlab-BoldItalic;writing-mode:lr-tb;fill:#129cd8;fill-opacity:1;fill-rule:nonzero;stroke:none"
         id="text2045"
         x="282.19827"
         y="-511.09509"><tspan
           x="282.19827 293.22446 302.78442 311.05405 321.02457 330.36456 335.76038 346.3027"
           y="-511.09509"
           sodipodi:role="line"
           id="tspan2043">NATACIÓN</tspan></text><g
         id="g2047"
         style="filter:url(#filter4417)"
         transform="translate(75.34866,21.888996)"><g
           id="g2049"
           clip-path="url(#clipPath2053)"><g
             id="g2055"
             transform="translate(206.7764,489.2061)"><path
               d="M 0,0 H 4.018 L 4.252,1.349 H 3.05 L 3.959,6.452 7.331,0 h 1.511 l 1.334,7.581 h 1.202 L 11.612,8.93 H 7.595 L 7.36,7.581 H 8.563 L 7.697,2.625 4.428,8.93 H 1.568 L 1.334,7.581 H 2.536 L 1.437,1.349 H 0.234 Z"
               style="fill:none;stroke:#129cd8;stroke-width:0.6;stroke-linecap:butt;stroke-linejoin:miter;stroke-miterlimit:10;stroke-dasharray:none;stroke-opacity:1"
               id="path2057" /></g><g
             id="g2059"
             transform="translate(217.2451,489.2061)"><path
               d="M 0,0 H 4.003 L 4.238,1.349 H 3.064 l 0.69,1.217 H 7.405 L 7.669,1.349 H 6.496 L 6.262,0 h 3.928 l 0.236,1.349 H 9.355 L 7.625,8.93 H 3.93 L 3.695,7.581 H 4.912 L 1.291,1.349 H 0.235 Z M 4.517,3.915 6.423,7.287 7.126,3.915 Z"
               style="fill:none;stroke:#129cd8;stroke-width:0.6;stroke-linecap:butt;stroke-linejoin:miter;stroke-miterlimit:10;stroke-dasharray:none;stroke-opacity:1"
               id="path2061" /></g><g
             id="g2063"
             transform="translate(228.916,489.2061)"><path
               d="M 0,0 H 4.341 L 4.575,1.349 H 3.256 L 4.355,7.581 H 6.026 L 5.792,6.217 h 1.54 L 7.815,8.93 H -0.308 L -0.791,6.217 H 0.748 L 0.982,7.581 H 2.654 L 1.555,1.349 h -1.32 z"
               style="fill:none;stroke:#129cd8;stroke-width:0.6;stroke-linecap:butt;stroke-linejoin:miter;stroke-miterlimit:10;stroke-dasharray:none;stroke-opacity:1"
               id="path2065" /></g><g
             id="g2067"
             transform="translate(235.0742,489.2061)"><path
               d="M 0,0 H 4.003 L 4.238,1.349 H 3.064 l 0.69,1.217 H 7.405 L 7.669,1.349 H 6.496 L 6.262,0 h 3.928 l 0.236,1.349 H 9.355 L 7.625,8.93 H 3.93 L 3.695,7.581 H 4.912 L 1.291,1.349 H 0.235 Z M 4.517,3.915 6.423,7.287 7.126,3.915 Z"
               style="fill:none;stroke:#129cd8;stroke-width:0.6;stroke-linecap:butt;stroke-linejoin:miter;stroke-miterlimit:10;stroke-dasharray:none;stroke-opacity:1"
               id="path2069" /></g><g
             id="g2071"
             transform="translate(250.5146,489.0303)"><path
               d="M 0,0 C 1.363,0 2.624,0.44 3.24,0.777 L 3.504,2.404 C 2.565,1.847 1.305,1.422 0.19,1.422 c -1.54,0 -2.698,0.836 -2.698,2.698 0,2.038 1.364,3.783 3.593,3.783 0.586,0 1.217,-0.117 1.671,-0.264 L 2.463,5.997 H 4.047 L 4.442,8.504 C 3.46,8.958 2.302,9.281 1.085,9.281 -2.155,9.281 -4.252,6.935 -4.252,4.076 -4.252,1.437 -2.479,0 0,0 Z"
               style="fill:none;stroke:#129cd8;stroke-width:0.6;stroke-linecap:butt;stroke-linejoin:miter;stroke-miterlimit:10;stroke-dasharray:none;stroke-opacity:1"
               id="path2073" /></g><g
             id="g2075"
             transform="translate(254.9424,489.2061)"><path
               d="M 0,0 H 4.105 L 4.34,1.349 H 3.138 L 4.237,7.581 H 5.439 L 5.674,8.93 H 1.568 L 1.334,7.581 H 2.536 L 1.437,1.349 H 0.234 Z"
               style="fill:none;stroke:#129cd8;stroke-width:0.6;stroke-linecap:butt;stroke-linejoin:miter;stroke-miterlimit:10;stroke-dasharray:none;stroke-opacity:1"
               id="path2077" /></g><g
             id="g2079"
             transform="translate(265.2061,489.0303)"><path
               d="m 0,0 c 3.196,0 5.278,2.36 5.278,5.205 0,2.537 -1.657,4.076 -4.222,4.076 -3.182,0 -5.249,-2.361 -5.249,-5.219 C -4.193,1.51 -2.552,0 0,0 Z m 0.044,1.422 c -1.555,0 -2.479,0.953 -2.479,2.683 0,2.185 1.482,3.754 3.447,3.754 1.553,0 2.507,-0.968 2.507,-2.713 0,-2.199 -1.525,-3.724 -3.475,-3.724 z m 0.807,8.475 3.004,1.906 -0.922,1.188 -2.596,-2.449 z"
               style="fill:none;stroke:#129cd8;stroke-width:0.6;stroke-linecap:butt;stroke-linejoin:miter;stroke-miterlimit:10;stroke-dasharray:none;stroke-opacity:1"
               id="path2081" /></g><g
             id="g2083"
             transform="translate(270.8809,489.2061)"><path
               d="M 0,0 H 4.018 L 4.252,1.349 H 3.05 L 3.959,6.452 7.331,0 h 1.511 l 1.334,7.581 h 1.202 L 11.612,8.93 H 7.595 L 7.36,7.581 H 8.563 L 7.697,2.625 4.428,8.93 H 1.568 L 1.334,7.581 H 2.536 L 1.437,1.349 H 0.234 Z"
               style="fill:none;stroke:#129cd8;stroke-width:0.6;stroke-linecap:butt;stroke-linejoin:miter;stroke-miterlimit:10;stroke-dasharray:none;stroke-opacity:1"
               id="path2085" /></g><g
             id="g2087"
             transform="translate(161.2773,515.4067)"><path
               d="m 0,0 -1.463,-10.481 c -2.237,-0.996 -5.347,-1.587 -8.116,-1.587 -6.625,0 -10.359,3.422 -10.359,9.456 0,7.403 5.567,12.378 13.811,12.378 2.706,0 4.946,-0.528 6.531,-0.995 L -1.431,2.986 c -1.119,0.373 -2.582,0.746 -4.384,0.746 -4.698,0 -6.252,-2.58 -6.252,-5.443 0,-3.172 1.895,-4.323 3.794,-4.323 0.311,0 0.53,0.031 0.747,0.062 L -6.687,0 Z"
               style="fill:#1b3459;fill-opacity:1;fill-rule:nonzero;stroke:none"
               id="path2089" /></g><g
             id="g2091"
             transform="translate(199.3525,524.769)"><path
               d="m 0,0 -2.955,-21.025 h -7.187 l 1.495,10.73 -4.947,-6.718 h -0.185 l -3.049,6.718 -1.492,-10.73 h -7.186 L -22.552,0 h 7.745 L -12.256,-6.873 -7.748,0 Z"
               style="fill:#1b3459;fill-opacity:1;fill-rule:nonzero;stroke:none"
               id="path2093" /></g><g
             id="g2095"
             transform="translate(207.875,512.1724)"><path
               d="M 0,0 H 3.358 L 2.582,6.469 Z M 12.066,-8.429 H 4.354 L 3.95,-4.915 h -5.909 l -1.37,-3.514 h -7.745 l 9.923,21.026 h 9.176 z"
               style="fill:#1b3459;fill-opacity:1;fill-rule:nonzero;stroke:none"
               id="path2097" /></g><g
             id="g2099"
             transform="translate(229.7109,509.2798)"><path
               d="m 0,0 c 3.545,0 5.038,2.923 5.038,6.189 0,2.489 -1.214,3.95 -3.577,3.95 -0.28,0 -0.686,0 -0.934,-0.031 L -0.903,0.031 C -0.654,0 -0.28,0 0,0 m 12.813,6.345 c 0,-10.574 -9.455,-12.286 -15.489,-12.286 -2.612,0 -5.07,0.25 -6.689,0.436 l 2.927,20.87 c 2.24,0.342 4.571,0.528 7.775,0.528 6.934,0 11.476,-3.453 11.476,-9.548"
               style="fill:#1b3459;fill-opacity:1;fill-rule:nonzero;stroke:none"
               id="path2101" /></g><g
             id="g2103"
             transform="translate(256.0244,517.6475)"><path
               d="m 0,0 c 0,1.523 -1.772,1.866 -3.017,1.866 -0.34,0 -0.654,-0.031 -0.871,-0.063 l -0.591,-4.199 c 0.188,-0.031 0.405,-0.031 0.654,-0.031 C -2.485,-2.427 0,-2.085 0,0 m 1.99,-6.159 c 1.9,-2.892 3.735,-2.488 5.038,-2.488 l -0.682,-5.039 c -1.121,-0.342 -2.426,-0.623 -4.231,-0.623 -3.014,0 -4.6,1.587 -6.874,6.999 -0.125,-0.031 -0.248,-0.031 -0.373,-0.031 l -0.931,-6.563 h -7.436 l 2.925,20.808 c 1.742,0.31 5.132,0.621 7.774,0.621 5.319,0 10.42,-1.305 10.42,-6.376 0,-4.26 -2.487,-6.252 -5.63,-7.308"
               style="fill:#1b3459;fill-opacity:1;fill-rule:nonzero;stroke:none"
               id="path2105" /></g><g
             id="g2107"
             transform="translate(271.7021,503.7437)"><path
               d="m 0,0 h -7.713 l 2.955,21.025 h 7.713 z"
               style="fill:#1b3459;fill-opacity:1;fill-rule:nonzero;stroke:none"
               id="path2109" /></g><g
             id="g2111"
             transform="translate(283.5527,509.2798)"><path
               d="m 0,0 c 3.545,0 5.039,2.923 5.039,6.189 0,2.489 -1.214,3.95 -3.577,3.95 -0.281,0 -0.686,0 -0.932,-0.031 L -0.902,0.031 C -0.653,0 -0.28,0 0,0 m 12.814,6.345 c 0,-10.574 -9.453,-12.286 -15.489,-12.286 -2.613,0 -5.07,0.25 -6.688,0.436 l 2.925,20.87 c 2.239,0.342 4.571,0.528 7.777,0.528 6.933,0 11.475,-3.453 11.475,-9.548"
               style="fill:#1b3459;fill-opacity:1;fill-rule:nonzero;stroke:none"
               id="path2113" /></g><g
             id="g2115"
             transform="translate(171.5654,514.54)"><path
               d="m 0,0 c 0,2.045 -1.656,3.481 -3.704,3.481 -2.044,0 -3.704,-1.436 -3.704,-3.481 0,-2.045 1.66,-4.167 3.704,-4.167 C -1.656,-4.167 0,-2.045 0,0"
               style="fill:#1b3459;fill-opacity:1;fill-rule:nonzero;stroke:none"
               id="path2117" /></g><g
             id="g2119"
             transform="translate(115.4189,531.4648)"><path
               d="m 0,0 c -0.363,-0.581 -1.079,-1.607 -1.828,-2.654 l -3.393,-2.208 c -0.789,-0.512 -1.54,-0.762 -2.3,-0.762 -0.845,0 -1.66,0.315 -2.421,0.804 0.516,0.154 1.004,0.474 1.412,1.035 1.897,2.605 3.555,5.862 5.862,6.097 C -1.247,2.37 -0.063,1.362 0,0"
               style="fill:#1b3459;fill-opacity:1;fill-rule:nonzero;stroke:none"
               id="path2121" /></g><g
             id="g2123"
             transform="translate(111.0352,525.3105)"><path
               d="m 0,0 c -1.126,-1.597 -2.962,-5.271 -6.602,-5.449 -2.93,0 -4.762,2.61 -6.36,4.799 -1.601,2.189 -4.856,6.804 -4.856,6.804 0,0 0.71,2.25 2.839,2.312 h 0.155 c 1.996,0 2.354,-1.153 3.162,-2.312 0.68,-0.968 3.993,-7.162 8.524,-7.162 0.992,0 2.04,0.296 3.138,1.008"
               style="fill:#129cd8;fill-opacity:1;fill-rule:nonzero;stroke:none"
               id="path2125" /></g><g
             id="g2127"
             transform="translate(107.6611,533.1533)"><path
               d="m 0,0 c 0,1.815 -1.472,3.088 -3.286,3.088 -1.815,0 -3.287,-1.273 -3.287,-3.088 0,-1.814 1.472,-3.695 3.287,-3.695 C -1.472,-3.695 0,-1.814 0,0"
               style="fill:#129cd8;fill-opacity:1;fill-rule:nonzero;stroke:none"
               id="path2129" /></g><g
             id="g2131"
             transform="translate(93.2168,489.0122)"><path
               d="m 0,0 c 0.365,0.582 1.077,1.608 1.828,2.655 l 3.393,2.208 c 0.79,0.511 1.538,0.761 2.3,0.761 C 8.365,5.624 9.179,5.31 9.94,4.82 9.424,4.667 8.937,4.347 8.528,3.786 6.633,1.181 4.976,-2.077 2.667,-2.312 1.247,-2.369 0.063,-1.361 0,0"
               style="fill:#1b3459;fill-opacity:1;fill-rule:nonzero;stroke:none"
               id="path2133" /></g><g
             id="g2135"
             transform="translate(97.5986,495.1675)"><path
               d="m 0,0 c 1.129,1.596 2.962,5.271 6.601,5.448 2.932,0 4.765,-2.609 6.361,-4.798 1.603,-2.189 4.855,-6.805 4.855,-6.805 0,0 -0.706,-2.25 -2.838,-2.312 h -0.154 c -1.996,0 -2.353,1.155 -3.164,2.312 C 10.983,-5.186 7.67,1.007 3.139,1.007 2.146,1.007 1.098,0.712 0,0"
               style="fill:#129cd8;fill-opacity:1;fill-rule:nonzero;stroke:none"
               id="path2137" /></g><g
             id="g2139"
             transform="translate(100.9756,487.3252)"><path
               d="M 0,0 C 0,-1.815 1.471,-3.088 3.283,-3.088 5.098,-3.088 6.57,-1.815 6.57,0 6.57,1.813 5.098,3.695 3.283,3.695 1.471,3.695 0,1.813 0,0"
               style="fill:#129cd8;fill-opacity:1;fill-rule:nonzero;stroke:none"
               id="path2141" /></g><g
             id="g2143"
             transform="translate(117.2773,489.9404)"><path
               d="m 0,0 c -0.313,0.608 -0.831,1.747 -1.348,2.927 l -0.164,4.045 c -0.036,0.939 0.132,1.711 0.524,2.365 0.427,0.724 1.116,1.266 1.926,1.67 C 0.807,10.485 0.832,9.902 1.106,9.265 2.376,6.304 4.327,3.213 3.35,1.11 2.674,-0.14 1.201,-0.643 0,0"
               style="fill:#1b3459;fill-opacity:1;fill-rule:nonzero;stroke:none"
               id="path2145" /></g><g
             id="g2147"
             transform="translate(114.2246,496.8511)"><path
               d="m 0,0 c -0.794,1.785 -3.015,5.241 -1.309,8.459 1.5,2.519 4.679,2.763 7.375,3.016 2.7,0.257 8.332,0.696 8.332,0.696 0,0 1.573,-1.759 0.536,-3.622 L 14.854,8.416 C 13.835,6.701 12.66,6.983 11.252,6.88 10.071,6.79 3.056,7.108 0.739,3.212 0.233,2.36 -0.05,1.307 0,0"
               style="fill:#129cd8;fill-opacity:1;fill-rule:nonzero;stroke:none"
               id="path2149" /></g><g
             id="g2151"
             transform="translate(122.6924,495.7456)"><path
               d="M 0,0 C 1.56,-0.928 3.408,-0.314 4.333,1.246 5.263,2.805 4.919,4.721 3.359,5.647 1.798,6.575 -0.567,6.271 -1.497,4.711 -2.424,3.152 -1.56,0.927 0,0"
               style="fill:#129cd8;fill-opacity:1;fill-rule:nonzero;stroke:none"
               id="path2153" /></g><g
             id="g2155"
             transform="translate(128.5254,511.2339)"><path
               d="m 0,0 c -0.686,0.01 -1.934,0.093 -3.217,0.197 l -3.64,1.768 C -7.703,2.379 -8.305,2.891 -8.693,3.544 -9.13,4.267 -9.28,5.128 -9.256,6.032 -8.857,5.67 -8.332,5.416 -7.641,5.355 -4.431,5.074 -0.784,5.332 0.606,3.476 1.389,2.29 1.136,0.755 0,0"
               style="fill:#1b3459;fill-opacity:1;fill-rule:nonzero;stroke:none"
               id="path2157" /></g><g
             id="g2159"
             transform="translate(120.9932,511.8145)"><path
               d="m 0,0 c -1.95,0.144 -6.046,-0.179 -8.07,2.848 -1.513,2.512 -0.224,5.428 0.829,7.925 1.052,2.499 3.33,7.668 3.33,7.668 0,0 2.293,0.554 3.442,-1.241 l 0.08,-0.132 C 0.64,15.357 -0.164,14.457 -0.738,13.166 -1.22,12.083 -4.817,6.053 -2.48,2.169 -1.969,1.319 -1.176,0.572 0,0"
               style="fill:#129cd8;fill-opacity:1;fill-rule:nonzero;stroke:none"
               id="path2161" /></g><g
             id="g2163"
             transform="translate(125.9727,518.7505)"><path
               d="M 0,0 C 1.553,0.936 1.889,2.853 0.954,4.407 0.017,5.961 -1.833,6.567 -3.389,5.631 -4.942,4.695 -5.795,2.464 -4.858,0.91 -3.925,-0.645 -1.554,-0.936 0,0"
               style="fill:#129cd8;fill-opacity:1;fill-rule:nonzero;stroke:none"
               id="path2165" /></g><g
             id="g2167"
             transform="translate(91.8213,530.2715)"><path
               d="m 0,0 c 0.314,-0.606 0.832,-1.747 1.347,-2.926 l 0.167,-4.045 c 0.035,-0.94 -0.133,-1.712 -0.522,-2.365 -0.432,-0.725 -1.12,-1.266 -1.929,-1.671 0.132,0.522 0.106,1.106 -0.167,1.743 -1.269,2.961 -3.223,6.052 -2.246,8.155 C -2.674,0.14 -1.202,0.644 0,0"
               style="fill:#1b3459;fill-opacity:1;fill-rule:nonzero;stroke:none"
               id="path2169" /></g><g
             id="g2171"
             transform="translate(94.873,523.3613)"><path
               d="m 0,0 c 0.795,-1.786 3.019,-5.241 1.31,-8.459 -1.498,-2.52 -4.679,-2.763 -7.375,-3.016 -2.699,-0.257 -8.331,-0.696 -8.331,-0.696 0,0 -1.572,1.759 -0.537,3.621 l 0.08,0.133 c 1.021,1.716 2.196,1.433 3.603,1.537 1.181,0.09 8.195,-0.228 10.513,3.668 C -0.229,-2.36 0.051,-1.307 0,0"
               style="fill:#129cd8;fill-opacity:1;fill-rule:nonzero;stroke:none"
               id="path2173" /></g><g
             id="g2175"
             transform="translate(86.4063,524.4668)"><path
               d="M 0,0 C -1.56,0.927 -3.406,0.314 -4.333,-1.245 -5.259,-2.804 -4.917,-4.721 -3.357,-5.648 -1.798,-6.575 0.57,-6.271 1.496,-4.711 2.426,-3.152 1.559,-0.927 0,0"
               style="fill:#129cd8;fill-opacity:1;fill-rule:nonzero;stroke:none"
               id="path2177" /></g><g
             id="g2179"
             transform="translate(80.5742,508.978)"><path
               d="M 0,0 C 0.685,-0.01 1.933,-0.093 3.217,-0.197 L 6.856,-1.966 C 7.703,-2.378 8.304,-2.891 8.694,-3.544 9.131,-4.267 9.279,-5.127 9.255,-6.031 8.856,-5.669 8.331,-5.417 7.639,-5.355 4.43,-5.074 0.783,-5.331 -0.606,-3.476 -1.389,-2.29 -1.137,-0.754 0,0"
               style="fill:#1b3459;fill-opacity:1;fill-rule:nonzero;stroke:none"
               id="path2181" /></g><g
             id="g2183"
             transform="translate(88.1055,508.3984)"><path
               d="m 0,0 c 1.95,-0.144 6.045,0.178 8.072,-2.848 1.511,-2.512 0.221,-5.429 -0.832,-7.925 -1.05,-2.5 -3.325,-7.669 -3.325,-7.669 0,0 -2.296,-0.555 -3.446,1.242 l -0.076,0.132 c -1.033,1.71 -0.229,2.611 0.348,3.901 0.48,1.083 4.077,7.113 1.74,10.997 C 1.972,-1.32 1.177,-0.573 0,0"
               style="fill:#129cd8;fill-opacity:1;fill-rule:nonzero;stroke:none"
               id="path2185" /></g><g
             id="g2187"
             transform="translate(83.127,501.4624)"><path
               d="m 0,0 c -1.554,-0.937 -1.889,-2.853 -0.952,-4.408 0.934,-1.553 2.784,-2.159 4.339,-1.223 1.555,0.936 2.409,3.166 1.472,4.72 C 3.925,0.644 1.555,0.935 0,0"
               style="fill:#129cd8;fill-opacity:1;fill-rule:nonzero;stroke:none"
               id="path2189" /></g></g></g></g></g></svg>
